<?xml version="1.0" encoding="utf-8"?>
<!-- Generator: Adobe Illustrator 26.3.1, SVG Export Plug-In . SVG Version: 6.00 Build 0)  -->
<svg version="1.1" id="Layer_1" xmlns="http://www.w3.org/2000/svg" xmlns:xlink="http://www.w3.org/1999/xlink" x="0px" y="0px"
	 viewBox="0 0 1000 1000" style="enable-background:new 0 0 1000 1000;" xml:space="preserve">
<g>
	<path d="M926.8,265c-25.3-15.7-57.5-4.9-85.6-6.5c-55.2,2.1-110.3,4-165.5,6.2c-11.9,1.4-20.5-7.2-29.3-13.6
		c-23.5-17.1-48.8-30.8-76.2-40.5c-14.5-6.4-30.9-6.3-45-12.7c-18.6,1.5-39.1-2.3-56.8,1.4c-29.9,8.8-62.6,14.3-90.9,30.2
		c-20.8,6.2-43.1,36.4-63.7,29.2c-47.3-14.9-95.7-26.4-144.6-34.6c-26.1-2.2-54.6-14.8-79.6-2.9c-28.5,15.3-28,39.6-1.9,57.4
		c95.3,64.7,27.8,149.7,200.3,184.2c10-0.2,0.4,31.4,11.4,46.1c5.8,14.1,24.4,24.7,4.2,36.2c-18.8,14.9-23.4,38.1-16.7,60.4
		c3.2,19.6,4.7,39.5,7.4,59.1c6.1,27.3,47.1-3.4,45.9,31.4c-18.1,96.3-50,110.9,68.7,105.4c75.3-0.4,150.8,0.4,226-1.1
		c12.3-6.2,2.3-40.1,4.9-53.1c-0.2-25.5-0.7-50.9-0.7-76.4c0.2-12.2-4.2-25.4,12.9-24.9c37.3-3.2,60.7-34.3,64.3-69.9
		c3-11.6,18-11,25.1-19.2c21.6-21.8-10.7-40.2-9.3-72.1c-5.4-19-33.6-5.7-35.6-16.3c0.1-11.1,17.3-5.2,24.9-8.3
		c44.7-5.3,87.3-24,117.5-58.1C855.4,376.8,954.8,288.1,926.8,265z M474.3,792.9c-35.1,7.2-26.3-32.6-30.8-54.9
		c-2.6-27.4-4.9-125.9,26-134.1c7.5-2.4,25.6-6.6,25.6,5.5c-2.5,22-3.4,44.2-4.5,66.3c-1.2,25.5-1.6,51.2-1.6,76.7
		C487,766.7,498.1,796.2,474.3,792.9z M344,767.2c1.9-8.4-2.5-21.2,5.4-26.6c20.9-8.7,43.1-21.8,53.3-42.5
		c-11.5,13.4-46.6,44.5-49.5,8.7c2.3-15.4,6.4-30.5,9-45.9c-9.8,19-29.9,9.5-26.4-10.3c0.3-1.8-1.2-7.6,2.1-5.1
		c48.2,39.8,32.5-38.8,37.5-67.2c0.1-13.3,14.8-8.2,23-6.3c12.4,3.7,7.1,21.7,6.5,31.4c-2.8,19.9-9.8,42.3-29.2,51.7
		c-3.1,1.4-7.6,3.8-5.7,7.7c19.5,15.3,35-29.1,37.7-44.1c2.3-4.2,1.9-24.4,6.8-21.2c9.9,12.5,33.7-1,35.4,10.9
		c-7.7,39.7-15,80-13.9,120.7c-0.5,69.5,33,61-47.9,57.1c-14.1-1.1-28.4-0.7-42.4-2.6C341.2,780.6,344.9,772.1,344,767.2z
		 M314.8,555.7c4.1,12,4.5,27.9,16.9,35.4c3.7,3.7-2.5,10.8-0.9,15.9c0.6,3.1,3.4,0.6,4.8-0.5c6.3-0.9,12.7,5.7,18,8.9
		c18.7,14.4,18.3,13.5,5.1,32.3c-9.5,6.1-19.8-11.2-27.8-15.8C308.5,614.4,291.4,578.8,314.8,555.7z M330.1,651.5
		c-22.9,45.9-33.6-22.7-20.4-35.7C316,627.2,334.4,637.2,330.1,651.5z M469.7,489c46.1-15.4,95.7-10.3,143.8-15.6
		c16.7-2.8,42.2,4.3,50.6-14.7c1.3-2.1,2.9-2.6,5.1-1.3c41.9,29.2-63.9,75.9-86,86.4c-33.7,10.5-59,39.5-95.2,41.9
		c-24.1,3.7-57.8,10.8-76.2-4.6c2.4-10.4,24.1,2.8,24.8-8.5C429.8,530,405.2,488.5,469.7,489z M466,484.1c1.6-1.2,4.8,0,6.9,0.9
		C470.8,486,466.7,486.8,466,484.1z M650.2,545.9c3.8,14.1,5.2,28.7,8.1,43c3.7,2.1,13.8-10.4,15-14.8
		c-19.1,14.2-14.7-18.1-19.1-28.2c-1.3-31.4,32.7-53.2,59.4-60.4c16.9,2.8,7.8,21,0.4,29.2c-1,3.3,9,2.6,11.4,5.5
		c12.1,4.7,15.5,32.9-1.4,31.1c-11.9-8.5-18.4,5-28.7,8.8c-3.5,1.5-30.5,10.6-18.3,12.3c57.1-17.7-21.2,107.5-56.2,33.7
		c-13.9-20,1.4-64.2,15.6-81.6c5.2-6.5,13.9-7.5,19.6-12.8c6-6.6,13.1-15.5,21.7-17.8C669.1,511.1,643,523,650.2,545.9z
		 M661.8,581.5c0-0.1,0.1-0.3,0.2-0.5c0.5,0.1,0.5,0.3,0.3,0.7C662.1,581.6,661.8,581.6,661.8,581.5z M617.5,533.4
		c0.4-3.1,6.6-4.3,9.1-6.4c5.3-2.1-2.5,7-2.9,9.3C622,539.3,619.6,534,617.5,533.4z M562.3,558.2c-16.2,14.3-30.7,35.2-55.3,32.8
		c-9.2-0.9-8.4,11.9-12.7,9c-3.5-2.2-7.4-2.7-11.4-2.5c-10.7-0.8-20.9,6.4-29.1,9.5c-5-15.6-25.4-1.2-35.4-11.6
		c-2-2.8-7.5-0.2-8-3.5c0-3.9,1.5-3.9,4-3c13.3,5,27.6,6.5,41.8,5.5c19.4-1.9,38.9-4.8,57.7-9.8
		C531.5,578.7,545.1,564.1,562.3,558.2z M460.5,485.7c-64.8,1-26.7,51.8-31,85.9c-30.1,2.6-59.3-13.9-80.5-34.3
		c-16.2-19.5-55.6-54.4-25.2-77.2c14.6,42.2,58.9,20.8,92.3,27.2c7.9-2,14.1-8.7,21.9-10C442.9,476.9,474.1,481.7,460.5,485.7z
		 M410,585.2c0.4,0.4-0.1,1.4-0.7,1.4C409.1,586.1,409.3,585.4,410,585.2z M408.9,575.4c-0.3-0.8,1.4-0.8,1.2,0.1
		C410,576.3,409.1,576,408.9,575.4z M379.6,565.8c-6.6,3.6-6.2,5.2-7.7-3.2C370.2,558.3,381.5,564.6,379.6,565.8z M369.8,622.4
		c-0.1,1.1-1.5,0.5-1.4-0.4C368.5,621.1,370,621.4,369.8,622.4z M354,551c18.3,5.5,15.5,24.9,14.9,40c-2.1,11,7.3,37.6-10.9,20.7
		c-5.8-6.5-14.4-9.9-21-13.3c0-9.4-7.8-16.1-11.1-24.5C312,544,327.8,535.2,354,551z M366.4,644.3c0.1,2.6-5.8,13.8-6.7,7.9
		C362.7,650.8,363.5,643.9,366.4,644.3z M391.2,650.5c-3.1,5-10.3,13.5-16.3,10.9c3.8-4.7,11.3-6.6,15.5-11.7
		C391.1,648.7,392,649.6,391.2,650.5z M497,796.7c-7.9-0.6-18.2,3.1-6.1-4.9c0.9-1.1,1.4-1,2.4,0.1C493.8,793.6,500,796,497,796.7z
		 M495.4,777.8c0.5-15.9,1-31.8,1.5-47.7c1.1-36.8,2.4-73.5,3.3-110.2c0.4-23.5-2.5-24.9,22.5-26.3c10.8-2.8,20.1-9.7,27.4-18
		c16.7-19.2,42.4-28,64.6-38.5c12.9,4.3-7.2,27.1-5.2,37.6c-2.5,25.1-3.9,51.1-16.9,73.5c-5.3,8.5-5.8,19.6-0.9,28
		c6.3-15.7,10.7-32.9,16.8-49c6.7,38.8,5.2,80.2,9.8,119.8c1.6,25.7,2.2,41.6-28.9,41.3c-26.2,3.7-52.7,3.8-79.2,4.3
		C499.1,794.9,493.2,788.9,495.4,777.8z M594,656.4c-0.1,0.2-0.2,0.3-0.4,0.4c0.1-0.2,0.2-0.4,0.3-0.7
		C593.9,656.3,594,656.4,594,656.4z M593.6,657.2c0-0.1-0.1-0.2,0-0.2L593.6,657.2z M927.7,282.9C874.2,358.2,814,452.1,712.1,456.7
		c-10.3-0.2-23.9,2.3-19,15.9c3.4,7.8,14.2,3.2,20.8,5.2c21.8,0.5,11.6,25,19.6,37.5c27.7,40.2-1.5,34-20.5,56.8
		c-14.4,91.5-75.3,51.8-78.5,83.7c0.4,43.5,0.7,87,1.8,130.5c2.8,14.3-13.6,9.5-22.4,10.2c-22.6-0.2-45.3,0.8-67.9-0.6
		c23.8-4.9,78.9,6.3,76.6-30c-1.2-44.3-5-88.6-8.5-132.7c-0.4-9-3.5-5.6-7-9.8c2.2-2.9,3.4-33.7,6.5-23.7
		c15.3,47.6,64.2,40.3,82.3-0.5c3.9-10.1,10.6-26.7-3.1-32.3c-1.3-0.4-0.7-1.4,0.2-1.8c11.2-2.4,18.2-17.5,30.2-10.5
		c23.4,2.8,18.9-35.1,0.4-39.2c-7.9-2.2,2.7-9.6,2.9-14.7c3.6-29.5-28.8-16.1-42.2-5.6c-1.5,0.8-3.1,2.1-3.6-0.2
		c0-2.8-4.8-3.5-2.9-6.1c15.8-12.2-4.4-50-18.6-29c-16.6,15.7-47.7,6.7-69.1,11.1c-20-3.3-42.2,8-62.9,0.4
		c-15.2-1.3-29.5,9.7-45.5,7.8c-14.3,0.5-27.8-9.1-42-3.6c-8.8,3.7-18.9,0.3-27.4,4.1c-8.4,3.5,0.3-7.4-3.6-7.7
		c-27.3,9.8-58.9,4.4-75.3-21.2c-7-7.8-20.2,2.9-29.9,0.3c-43-3.3-83.7-27.8-114.9-56.5c-31.6-28-32.5-74-62.3-103.2
		c-12.1-14-29-23.1-40.4-37.6c-15.9-42.5,114.3-6.6,134.3-4.5c23.4,5.3,46.7,11.5,69.6,18.6c15.3,3.3,32.7,16.4,46.9,4
		c90.3-65.2,222.9-79.1,309.9-1c15.1,13,36.3,6.3,54.4,7.1c32-1.1,64.1-1.7,96.1-2.6c24.4,2.6,107.6-11,118.9,4.4
		c3.4,8.1-7.3,14-10.2,20.8c-13.7,19.7-28.1,38.8-43.9,56.8c-45.4,58.4-113.2,96.2-188.4,91.1c-8.3,1.1-6.3-6-6.5-11.1
		c-12.7,10-26.6,18.4-42.8,22.1c-11,6.3-79.9,2.5-40.5,9.1c26.3-1.7,54.2-5.2,76.2-21.5c2.7-1.9,2.8-1.9,4.5,0.8
		c24.9,11.6,58.8,0.2,85.4-4.8c54.3-14.6,93.7-57.4,128.4-99.4c11.4-14.1,22.1-28.7,32.4-43.6c8.4-8.6,15.5-24.1-0.5-29
		c-79.3-3.8-159.5,3.7-239,4.4c-9.4,0.6-18.1-3-24.9-9.4c-38-31.6-86-50.8-135.6-52.4c-39.3-1.6-76.9,6-113.1,21.3
		c-21.4,9.1-41.6,20.3-61.1,33c-5.5,3.8-11.7,7.5-18.6,5.2c-34.4-11.2-69.1-21.4-104.4-28.9c-25.1-4.8-172.6-39.2-121.9,21
		c25,20.5,50.5,42.8,59.9,75c18.8,60.1,78.4,98.1,136.8,113.1c32.2,7.6,33.3-13.6,53.3,12.1c17.3,17.6,42.5,14.7,63.5,12.9
		c5.9,8.4-24.9,1.3-30.6,4c-19,3.9-38.2-1.5-45.8-21c-3.3-6.6-9.8-3.1-12.8,0.8c-23,27.3,15.4,59.8,32.3,80.2
		c1.4,4.3-9.4-3.3-12.1-2.7c-15.4-2.9-14.6,5.3-20.9,13.4c-19.8,8.4-18.4,41.3-8.1,57.4c1.1,2,1.1,2.2-0.8,3.9
		c-8,13.4-6.2,32.1-2.7,46.8c15.6,25.3,26.6-7.8,28.9-1.4c3.1,22.8,25.8,9.7,22.1,18.9c-3.6,18.9-12.9,42.4,10.4,50.2
		c-32,12.8-23.6,22.4-24.9,53c5.3,13.6,39.7,5.3,52.7,8.9c17.3-1,37.3,5.8,53.3,0c0.5-0.6,1.3-0.5,1.8,0.1c0.7,3.4,11.6,5.7,7.4,6.3
		c-32,0.4-63.9,0.2-95.9,0.2c-14.1,0.6-35.9-0.2-31.7-20c2.9-23.4,9.5-46.3,14.5-69.3c6.5-15.3,1.1-34.1-17.4-35.8
		c-9.7,1.2-23.1,3.8-25.9-9c-3.2-23.7-5-47.6-9.5-71.2c-1.8-8.2-1.2-16.6,2.6-24.1c5-10.6,14-18.2,22.5-26
		c13.8-15.5-25-35.8-16.9-74c0.1-7.5-6.9-9.4-13-10.4c-33.9-6.4-67.3-19.1-93.9-41.5c-41.1-30.9-38.8-89.6-76.7-123.3
		c-21.1-18.8-66.2-40.8-23.9-66.4c25.6-13.4,56.2,1,83.3,3c49.8,7.9,98.2,22,146.6,35.3c7.2,0.8,13.6-2.1,19.1-6.5
		c34.5-24.7,72.6-41.4,114.1-50.2c8.4,0.1,15.3-4.2,23-5.5c17.2,1.2,35.4-2.5,52.1,1.7c41.9,8.6,81.7,25.5,116.1,51.4
		c9.1,7.2,18.8,14.9,31.1,13.6c51.9-2,103.8-3.8,155.8-5.7C854,266.2,932.6,247.1,927.7,282.9z"/>
	<path d="M855.6,288.2c-49,1.6-99.9,10.6-146.8,25.6c-28.1,13.3-29.7,53.5-27.7,79.9C719.5,294.9,769.8,316,855.6,288.2z
		 M684.4,372.4c2.5-20.3,4.4-46.1,25.8-55.3c29.7-10.6,61.9-16.6,93-19.6c-51.5,11.1-90.6,17.2-114.4,71.2
		C687.6,371.4,684.1,380.1,684.4,372.4z"/>
	<path d="M622.1,346.7c-66.3-39-140.8,79.8-37.9,79C632.3,427.5,675.9,378.5,622.1,346.7z M571,376.3c-10.4,2.7-16.3-11.2-9.2-17.4
		C574.9,348,587.8,372.4,571,376.3z"/>
	<path d="M301.3,321.5c-31-19.2-66-30.8-99.8-44.1c-6.7-2-22.7-8.3-25.6-4.7c42,23.8,100.3,32.8,121.6,81.1
		c8.2,17,10.7,36.3,14.4,54.3C318.9,380.6,327.8,341.6,301.3,321.5z M315.1,367.4c-2,51.2-7.9-18.6-25.6-33.7
		c-16.2-23.8-44.7-31.4-68.9-44.2C256.1,303.7,322,316.2,315.1,367.4z"/>
	<path d="M432.5,356.4c-23.6-20.6-66.4-21.5-87.9,2.4c-25.5,35.5,23,73.9,57.9,69.5C446.9,433,469.9,387,432.5,356.4z M375.9,376.5
		c-11.7,2.8-15.7-17.3-3.9-19.7C385.7,352.8,390.4,375.1,375.9,376.5z"/>
	<path d="M438.2,347.6c-19-47.4-79.8-27.4-102.1,6c10.7-6.4,21.2-13,32.2-18.9C393.8,316.2,417.6,329.1,438.2,347.6z"/>
	<path d="M514.7,388.6c-18-19.5-67.1,4.1-37.1,24.6c10.8,1.3,2.2-3.1-0.7-7.2c-12.5-29.7,54-22.3,30.2,4.4
		C516.3,408.1,524.9,395.5,514.7,388.6z"/>
	<path d="M572.4,331.8c34.9-19.2,52.1-0.1,72.3,27.1c-6.7-22.2-27.8-47.4-53.7-39.3C586.9,319.8,565.3,332.6,572.4,331.8z"/>
	<path d="M569.8,332.2C569.9,332.2,569.9,332.2,569.8,332.2C569.9,332.2,569.9,332.2,569.8,332.2
		C569.9,332.2,569.9,332.2,569.8,332.2z"/>
	<path d="M425.5,281.7c13,13.8,25.5,27.9,38.4,41.2C460.2,304.9,445.1,284.3,425.5,281.7z M444.5,296.5c2.3,1.1,2.6,1.4,3.1,3.4
		C446.7,298.9,445.7,297.8,444.5,296.5z"/>
	<path d="M517.7,453.9c-15.9-9.6-39.7-13.5-54.2,0.1c18.4-1.8,37.4-4.1,55.6,1.3C518.9,454.5,518.2,454.2,517.7,453.9z"/>
	<path d="M534.7,314.2c6.4-5.2,14-21.2,12.4-30.2C545.1,289.6,529.8,311.8,534.7,314.2z"/>
	<path d="M490.2,306.5c3.1,20.1,6.5-2.8,4.5-9.9c-4.6-13.5-4.3-1.8-4.6,4.7c0,0,0.1,0,0.1,0C490.2,303,490.1,304.7,490.2,306.5z"/>
	<path d="M569.9,332.2c-0.3,0.1-0.1-0.4-0.2,0C569.5,332.6,570,332.6,569.9,332.2z"/>
	<path d="M521.3,658.2c-0.7,0.3-2.1,0.7-1.5,1.7c12.4,20.9,30.3-6.5,40.4-16.2c21-27.1,46.1-59.3,46.4-94.5
		C590,592.4,567.3,639.7,521.3,658.2z M539.3,659.1c-2.4,3.1-12.3,7.6-12.2,1.3c9.8-4.5,19.1-12.5,27.9-17.2
		C550.2,648.9,544.9,654.1,539.3,659.1z"/>
	<path d="M671.7,519.1c-9.1,2-5.6,15.4,3.6,12.8C683.6,530.2,679.9,516.4,671.7,519.1z M670.4,525.4c0.1-3.3,5.9-3.1,5.5,0.4
		C676,529.1,669.9,528.8,670.4,525.4z"/>
</g>
</svg>
